<mxfile host="app.diagrams.net" agent="Mozilla/5.0 (Macintosh; Intel Mac OS X 10_15_7) AppleWebKit/537.36 (KHTML, like Gecko) Chrome/135.0.0.0 Safari/537.36" version="26.1.1">
  <diagram name="Page-1" id="FBvv6D0FgZdEssNOhiTR">
    <mxGraphModel dx="822" dy="456" grid="1" gridSize="10" guides="1" tooltips="1" connect="1" arrows="1" fold="1" page="1" pageScale="1" pageWidth="1654" pageHeight="2336" math="0" shadow="0">
      <root>
        <mxCell id="0" />
        <mxCell id="1" parent="0" />
        <mxCell id="Hwga3ibiMN_EX1LtqwRA-32" value="" style="rounded=0;whiteSpace=wrap;html=1;" parent="1" vertex="1">
          <mxGeometry x="930" y="160" width="460" height="330" as="geometry" />
        </mxCell>
        <mxCell id="Hwga3ibiMN_EX1LtqwRA-2" value="" style="rounded=0;whiteSpace=wrap;html=1;" parent="1" vertex="1">
          <mxGeometry x="460" y="200" width="320" height="250" as="geometry" />
        </mxCell>
        <mxCell id="UtW_tzCOETzNDBHTeHjL-1" value="FeatherS2&lt;div&gt;(Gesture Capture)&lt;/div&gt;" style="rounded=0;whiteSpace=wrap;html=1;" parent="1" vertex="1">
          <mxGeometry x="610" y="295" width="120" height="60" as="geometry" />
        </mxCell>
        <mxCell id="UtW_tzCOETzNDBHTeHjL-2" value="LSM6DS0 IMU (I2C)&lt;div&gt;(Motion Detection)&lt;/div&gt;" style="rounded=0;whiteSpace=wrap;html=1;" parent="1" vertex="1">
          <mxGeometry x="610" y="210" width="120" height="60" as="geometry" />
        </mxCell>
        <mxCell id="UtW_tzCOETzNDBHTeHjL-9" value="Power System&lt;div&gt;(3.3V Regulated)&lt;/div&gt;" style="rounded=1;whiteSpace=wrap;html=1;" parent="1" vertex="1">
          <mxGeometry x="610" y="380" width="120" height="60" as="geometry" />
        </mxCell>
        <mxCell id="UtW_tzCOETzNDBHTeHjL-10" value="" style="endArrow=classic;html=1;rounded=0;exitX=0.5;exitY=0;exitDx=0;exitDy=0;entryX=0.5;entryY=1;entryDx=0;entryDy=0;" parent="1" source="UtW_tzCOETzNDBHTeHjL-9" target="UtW_tzCOETzNDBHTeHjL-1" edge="1">
          <mxGeometry width="50" height="50" relative="1" as="geometry">
            <mxPoint x="730" y="320" as="sourcePoint" />
            <mxPoint x="780" y="270" as="targetPoint" />
          </mxGeometry>
        </mxCell>
        <mxCell id="Hwga3ibiMN_EX1LtqwRA-1" value="" style="endArrow=classic;startArrow=classic;html=1;rounded=0;exitX=0.5;exitY=1;exitDx=0;exitDy=0;entryX=0.5;entryY=0;entryDx=0;entryDy=0;" parent="1" source="UtW_tzCOETzNDBHTeHjL-2" target="UtW_tzCOETzNDBHTeHjL-1" edge="1">
          <mxGeometry width="50" height="50" relative="1" as="geometry">
            <mxPoint x="610" y="360" as="sourcePoint" />
            <mxPoint x="590" y="290" as="targetPoint" />
          </mxGeometry>
        </mxCell>
        <mxCell id="Hwga3ibiMN_EX1LtqwRA-3" value="ATmega&lt;div&gt;(Motor Control)&lt;/div&gt;" style="rounded=0;whiteSpace=wrap;html=1;" parent="1" vertex="1">
          <mxGeometry x="1100" y="340" width="120" height="60" as="geometry" />
        </mxCell>
        <mxCell id="Hwga3ibiMN_EX1LtqwRA-4" value="ESP32&lt;div&gt;(Wireless Module)&lt;/div&gt;" style="rounded=0;whiteSpace=wrap;html=1;" parent="1" vertex="1">
          <mxGeometry x="950" y="250" width="120" height="60" as="geometry" />
        </mxCell>
        <mxCell id="Hwga3ibiMN_EX1LtqwRA-5" value="" style="endArrow=classic;startArrow=classic;html=1;rounded=0;exitX=0.5;exitY=1;exitDx=0;exitDy=0;entryX=0.5;entryY=0;entryDx=0;entryDy=0;" parent="1" source="Hwga3ibiMN_EX1LtqwRA-4" target="Hwga3ibiMN_EX1LtqwRA-3" edge="1">
          <mxGeometry width="50" height="50" relative="1" as="geometry">
            <mxPoint x="920" y="330" as="sourcePoint" />
            <mxPoint x="970" y="280" as="targetPoint" />
          </mxGeometry>
        </mxCell>
        <mxCell id="w11s8igcV5odzB4H1UxP-9" value="ADC" style="edgeLabel;html=1;align=center;verticalAlign=middle;resizable=0;points=[];" vertex="1" connectable="0" parent="Hwga3ibiMN_EX1LtqwRA-5">
          <mxGeometry x="0.0171" y="2" relative="1" as="geometry">
            <mxPoint as="offset" />
          </mxGeometry>
        </mxCell>
        <mxCell id="Hwga3ibiMN_EX1LtqwRA-6" value="3 x Motor Drivers&lt;div&gt;(Motor Control)&lt;/div&gt;" style="rounded=0;whiteSpace=wrap;html=1;" parent="1" vertex="1">
          <mxGeometry x="1100" y="250" width="120" height="60" as="geometry" />
        </mxCell>
        <mxCell id="Hwga3ibiMN_EX1LtqwRA-8" value="" style="endArrow=classic;startArrow=classic;html=1;rounded=0;entryX=0.5;entryY=1;entryDx=0;entryDy=0;exitX=0.5;exitY=0;exitDx=0;exitDy=0;" parent="1" source="Hwga3ibiMN_EX1LtqwRA-3" target="Hwga3ibiMN_EX1LtqwRA-6" edge="1">
          <mxGeometry width="50" height="50" relative="1" as="geometry">
            <mxPoint x="1030" y="440" as="sourcePoint" />
            <mxPoint x="1080" y="390" as="targetPoint" />
          </mxGeometry>
        </mxCell>
        <mxCell id="Hwga3ibiMN_EX1LtqwRA-9" value="Ultrasonic Sensor&lt;div&gt;(Obstacle Detection)&lt;/div&gt;" style="rounded=0;whiteSpace=wrap;html=1;" parent="1" vertex="1">
          <mxGeometry x="1250" y="250" width="120" height="60" as="geometry" />
        </mxCell>
        <mxCell id="Hwga3ibiMN_EX1LtqwRA-10" value="" style="endArrow=classic;html=1;rounded=0;exitX=0.5;exitY=1;exitDx=0;exitDy=0;entryX=0.5;entryY=0;entryDx=0;entryDy=0;" parent="1" source="Hwga3ibiMN_EX1LtqwRA-9" target="Hwga3ibiMN_EX1LtqwRA-3" edge="1">
          <mxGeometry width="50" height="50" relative="1" as="geometry">
            <mxPoint x="1285" y="420" as="sourcePoint" />
            <mxPoint x="1335" y="370" as="targetPoint" />
          </mxGeometry>
        </mxCell>
        <mxCell id="Hwga3ibiMN_EX1LtqwRA-13" value="Buzzer" style="rounded=0;whiteSpace=wrap;html=1;" parent="1" vertex="1">
          <mxGeometry x="1260" y="380" width="110" height="30" as="geometry" />
        </mxCell>
        <mxCell id="Hwga3ibiMN_EX1LtqwRA-14" value="" style="endArrow=classic;html=1;rounded=0;exitX=1;exitY=0.5;exitDx=0;exitDy=0;entryX=0;entryY=0.5;entryDx=0;entryDy=0;" parent="1" source="Hwga3ibiMN_EX1LtqwRA-3" target="Hwga3ibiMN_EX1LtqwRA-13" edge="1">
          <mxGeometry width="50" height="50" relative="1" as="geometry">
            <mxPoint x="1130" y="400" as="sourcePoint" />
            <mxPoint x="1180" y="350" as="targetPoint" />
          </mxGeometry>
        </mxCell>
        <mxCell id="Hwga3ibiMN_EX1LtqwRA-16" value="" style="endArrow=classic;startArrow=classic;html=1;rounded=0;exitX=1;exitY=0.5;exitDx=0;exitDy=0;entryX=0;entryY=0.5;entryDx=0;entryDy=0;" parent="1" source="Hwga3ibiMN_EX1LtqwRA-2" target="Hwga3ibiMN_EX1LtqwRA-32" edge="1">
          <mxGeometry width="50" height="50" relative="1" as="geometry">
            <mxPoint x="920" y="220" as="sourcePoint" />
            <mxPoint x="915" y="330" as="targetPoint" />
          </mxGeometry>
        </mxCell>
        <mxCell id="Hwga3ibiMN_EX1LtqwRA-17" value="ESP NOW" style="edgeLabel;html=1;align=center;verticalAlign=middle;resizable=0;points=[];" parent="Hwga3ibiMN_EX1LtqwRA-16" vertex="1" connectable="0">
          <mxGeometry x="0.2053" y="4" relative="1" as="geometry">
            <mxPoint x="-16" y="4" as="offset" />
          </mxGeometry>
        </mxCell>
        <mxCell id="Hwga3ibiMN_EX1LtqwRA-18" value="PWM Signals" style="rounded=0;whiteSpace=wrap;html=1;" parent="1" vertex="1">
          <mxGeometry x="950" y="340" width="120" height="60" as="geometry" />
        </mxCell>
        <mxCell id="Hwga3ibiMN_EX1LtqwRA-20" value="" style="endArrow=classic;html=1;rounded=0;exitX=1;exitY=0.5;exitDx=0;exitDy=0;entryX=0;entryY=0.5;entryDx=0;entryDy=0;" parent="1" source="Hwga3ibiMN_EX1LtqwRA-18" target="Hwga3ibiMN_EX1LtqwRA-3" edge="1">
          <mxGeometry width="50" height="50" relative="1" as="geometry">
            <mxPoint x="1070" y="600" as="sourcePoint" />
            <mxPoint x="1120" y="550" as="targetPoint" />
          </mxGeometry>
        </mxCell>
        <mxCell id="Hwga3ibiMN_EX1LtqwRA-24" value="Three Omni Wheels" style="rounded=0;whiteSpace=wrap;html=1;" parent="1" vertex="1">
          <mxGeometry x="1100" y="170" width="120" height="60" as="geometry" />
        </mxCell>
        <mxCell id="Hwga3ibiMN_EX1LtqwRA-25" value="" style="endArrow=classic;html=1;rounded=0;exitX=0.5;exitY=0;exitDx=0;exitDy=0;entryX=0.5;entryY=1;entryDx=0;entryDy=0;" parent="1" source="Hwga3ibiMN_EX1LtqwRA-6" target="Hwga3ibiMN_EX1LtqwRA-24" edge="1">
          <mxGeometry width="50" height="50" relative="1" as="geometry">
            <mxPoint x="990" y="170" as="sourcePoint" />
            <mxPoint x="1040" y="120" as="targetPoint" />
          </mxGeometry>
        </mxCell>
        <mxCell id="Hwga3ibiMN_EX1LtqwRA-26" value="Power System&lt;div&gt;(5V Regulated)&lt;/div&gt;" style="rounded=1;whiteSpace=wrap;html=1;" parent="1" vertex="1">
          <mxGeometry x="1100" y="420" width="120" height="60" as="geometry" />
        </mxCell>
        <mxCell id="Hwga3ibiMN_EX1LtqwRA-27" value="" style="endArrow=classic;html=1;rounded=0;exitX=0.5;exitY=0;exitDx=0;exitDy=0;entryX=0.5;entryY=1;entryDx=0;entryDy=0;" parent="1" source="Hwga3ibiMN_EX1LtqwRA-26" target="Hwga3ibiMN_EX1LtqwRA-3" edge="1">
          <mxGeometry width="50" height="50" relative="1" as="geometry">
            <mxPoint x="870" y="360" as="sourcePoint" />
            <mxPoint x="920" y="310" as="targetPoint" />
          </mxGeometry>
        </mxCell>
        <mxCell id="Hwga3ibiMN_EX1LtqwRA-28" value="GPIO for&amp;nbsp;&lt;div&gt;Buzzer Alert&lt;/div&gt;" style="rounded=0;whiteSpace=wrap;html=1;" parent="1" vertex="1">
          <mxGeometry x="1260" y="330" width="110" height="40" as="geometry" />
        </mxCell>
        <mxCell id="Hwga3ibiMN_EX1LtqwRA-29" value="" style="endArrow=classic;html=1;rounded=0;exitX=1;exitY=0.5;exitDx=0;exitDy=0;entryX=0;entryY=0.5;entryDx=0;entryDy=0;" parent="1" source="Hwga3ibiMN_EX1LtqwRA-3" target="Hwga3ibiMN_EX1LtqwRA-28" edge="1">
          <mxGeometry width="50" height="50" relative="1" as="geometry">
            <mxPoint x="1230" y="390" as="sourcePoint" />
            <mxPoint x="1280" y="340" as="targetPoint" />
          </mxGeometry>
        </mxCell>
        <mxCell id="w11s8igcV5odzB4H1UxP-1" value="ATmega" style="rounded=0;whiteSpace=wrap;html=1;" vertex="1" parent="1">
          <mxGeometry x="480" y="307.5" width="70" height="35" as="geometry" />
        </mxCell>
        <mxCell id="w11s8igcV5odzB4H1UxP-7" value="" style="endArrow=classic;startArrow=classic;html=1;rounded=0;entryX=0;entryY=0.5;entryDx=0;entryDy=0;exitX=1;exitY=0.5;exitDx=0;exitDy=0;" edge="1" parent="1" source="w11s8igcV5odzB4H1UxP-1" target="UtW_tzCOETzNDBHTeHjL-1">
          <mxGeometry width="50" height="50" relative="1" as="geometry">
            <mxPoint x="490" y="600" as="sourcePoint" />
            <mxPoint x="540" y="550" as="targetPoint" />
          </mxGeometry>
        </mxCell>
        <mxCell id="w11s8igcV5odzB4H1UxP-8" value="GPIO" style="edgeLabel;html=1;align=center;verticalAlign=middle;resizable=0;points=[];" vertex="1" connectable="0" parent="w11s8igcV5odzB4H1UxP-7">
          <mxGeometry x="-0.2286" relative="1" as="geometry">
            <mxPoint x="7" as="offset" />
          </mxGeometry>
        </mxCell>
      </root>
    </mxGraphModel>
  </diagram>
</mxfile>
